<?xml version="1.0" encoding="utf-8"?>
<!-- Generator: Adobe Illustrator 15.0.0, SVG Export Plug-In . SVG Version: 6.00 Build 0)  -->
<!DOCTYPE svg PUBLIC "-//W3C//DTD SVG 1.1//EN" "http://www.w3.org/Graphics/SVG/1.1/DTD/svg11.dtd">
<svg version="1.1" id="Layer_1" xmlns="http://www.w3.org/2000/svg" xmlns:xlink="http://www.w3.org/1999/xlink" x="0px" y="0px"
	 width="200px" height="200px" viewBox="0 0 200 200" enable-background="new 0 0 200 200" xml:space="preserve">
<g>
	<path fill="#F47920" d="M99.999,6.084c-51.784,0-93.916,42.131-93.916,93.915c0,51.785,42.132,93.917,93.916,93.917
		c51.787,0,93.918-42.132,93.918-93.917C193.917,48.215,151.786,6.084,99.999,6.084 M99.999,200C44.858,200,0,155.143,0,99.999
		C0,44.859,44.858,0,99.999,0C155.139,0,200,44.859,200,99.999C200,155.143,155.139,200,99.999,200"/>
</g>
<g>
	<path fill="#F47920" d="M72.33,60.065L51.032,94.532c0,0-3.903,5.073-0.88,10.138l20.417,34.462l-2.021,1.019l-37.65-38.522
		c0,0-2.021-2.023,0-4.054l39.389-38.521L72.33,60.065z"/>
	<path fill="#635E58" d="M129.416,60.065l21.294,34.467c0,0,2.175,5.073-0.879,10.138l-22.158,34.462l2.028,1.019l39.397-38.522
		c0,0,2.027-2.023,0-4.054l-37.638-38.521L129.416,60.065z"/>
	<path fill="#ABFF00" d="M142.357,97.062"/>
	<path fill="#6DFF3F" d="M87.343,41.162"/>
	<path fill="#F47920" d="M117.366,42.634l-2.948-1.472l-12.139,11.951l5.291,5.377L117.366,42.634z"/>
	<path fill="#F47920" d="M100.876,69.321l0.002-0.001l-5.696-9.22l5.693,9.22L100.876,69.321z M105.011,139.7l-5.417-9.026
		L85.6,107.358c-4.425-7.364,0.863-14.716,0.863-14.716l13.083-21.171l-0.595-0.964l-5.422-8.781L57.643,97.062
		c-2.938,2.933,0,5.881,0,5.881l36.202,36.777l5.483,5.576l13.332,13.541l2.946-1.476L105.011,139.7z"/>
	<polygon fill="#635E58" points="92.598,141.68 82.639,157.361 85.569,158.837 97.718,146.881 97.717,146.878 	"/>
	<path fill="#635E58" d="M142.357,97.062l-36.011-36.593l-5.681-5.77L87.343,41.162l-2.946,1.472L95.182,60.1l5.693,9.22
		l14.407,23.323c0,0,3.527,7.349-0.883,14.716l-13.452,21.178l0.587,0.976l5.135,8.561l35.688-35.133
		C142.357,102.939,145.288,99.99,142.357,97.062z"/>
	<path fill="#D4FF3F" d="M57.643,102.942"/>
</g>
</svg>
