<?xml version="1.0" encoding="utf-8"?>
<!-- Generator: Adobe Illustrator 16.0.0, SVG Export Plug-In . SVG Version: 6.00 Build 0)  -->
<svg version="1.2" baseProfile="tiny" id="Layer_1" xmlns="http://www.w3.org/2000/svg" xmlns:xlink="http://www.w3.org/1999/xlink"
	 x="0px" y="0px" width="3000px" height="3000px" viewBox="0 0 3000 3000" xml:space="preserve">
<g>
	<path fill="#6A757C" d="M1069.379,1195.233c151.624,0,274.884,121.556,277.506,272.479
		c2.808,87.979,74.876,158.417,163.445,158.417c88.568,0,160.797-70.432,163.443-158.417h114.186
		c-2.707,150.936-126.061,272.536-277.629,272.536c-151.625,0-274.885-121.6-277.569-272.536
		c-2.808-87.8-74.938-158.293-163.382-158.293c-88.624,0-160.692,70.493-163.563,158.293H791.631
		C794.439,1316.789,917.811,1195.233,1069.379,1195.233"/>
	<path fill="#EC1C24" d="M2254.527,1194.651v273.006c0,1.054,0,1.94-0.123,2.808c-4.029,86.627-75.527,155.659-163.264,155.659
		c-87.453,0-158.889-68.746-163.271-155.138c0-0.991-0.125-276.105-0.125-277.215H1813.51c0,0.924,0,275.87,0.063,276.694
		c4.215,149.807,126.887,269.784,277.568,269.784c150.508,0,273.066-119.74,277.68-269.208v-3.39v-273.007h-114.293V1194.651z"/>
	<path fill="#EC1C24" d="M637.789,931.581c0,0.645,0.123,807.384,0.123,807.384H752.16V931.581H637.789z"/>
	<path fill="#EC1C24" d="M2664.232,1631.207c-90.266,0-163.555-73.123-163.668-163.495c2.809-87.8,78.1-158.293,166.711-158.293
		c62.709,0,117.057,35.337,144.67,87.043c10.289,21.539,16.146,45.583,16.146,71.021
		C2828.037,1558.021,2754.734,1631.207,2664.232,1631.207 M2944.85,1740.137v-2.227v-100.555v2.176v-172.984
		c-3.391-150.452-126.42-271.308-277.629-271.308c-27.539,0-54.225,3.985-79.197,11.473
		c-112.072,31.066-194.801,132.267-198.131,253.228c-0.123,2.572-0.229,5.15-0.352,7.778h0.229
		c0.123,149.405,121.209,270.614,270.539,270.614c64.588,0,123.904-22.76,170.293-60.482v62.113v0.229h114.248V1740.137
		L2944.85,1740.137z"/>
	<path fill="#EC1C24" d="M1069.379,1740.248c151.624,0,274.884-121.557,277.506-272.597
		c2.808-87.744,74.876-158.238,163.445-158.238c87.916,0,159.645,69.502,163.375,156.483c0,0.589,0.068,602.524,0.068,602.524
		h114.186v-601.935c-3.471-150.341-126.371-271.258-277.629-271.258c-151.625,0-274.885,121.618-277.569,272.424
		c-2.808,88.091-74.938,158.529-163.383,158.529c-88.623,0-160.691-70.432-163.562-158.529H791.631
		C794.439,1618.686,917.811,1740.248,1069.379,1740.248"/>
	<path fill="#EC1C24" d="M461.885,1403.95c-8.479-28.308-25.153-51.532-50.07-69.322c-24.806-17.783-53.634-26.56-86.522-26.56
		c-35.622,0-67.023,9.942-93.831,29.832c-16.958,12.521-32.578,34.631-46.909,66.038L461.885,1403.95L461.885,1403.95z
		 M589.881,1504.742H178.869c5.969,36.26,21.707,64.982,47.504,86.516c25.797,21.348,58.785,32.059,98.751,32.059
		c47.79,0,88.854-16.668,123.124-50.201l107.87,50.734c-26.913,38.014-59.263,66.26-96.639,84.465
		c-37.438,18.303-81.898,27.434-133.487,27.434c-80.027,0-145.072-25.16-195.502-75.689
		c-50.244-50.436-75.341-113.541-75.341-189.415c0-77.813,25.041-142.5,75.167-193.754c50.139-51.583,113.077-77.151,188.665-77.151
		c80.313,0,145.531,25.624,195.899,77.096c50.194,51.297,75.465,119.274,75.465,203.51L589.881,1504.742z"/>
</g>
</svg>
