<?xml version="1.0" encoding="UTF-8" standalone="no"?>
<svg
   xmlns:dc="http://purl.org/dc/elements/1.1/"
   xmlns:cc="http://creativecommons.org/ns#"
   xmlns:rdf="http://www.w3.org/1999/02/22-rdf-syntax-ns#"
   xmlns:svg="http://www.w3.org/2000/svg"
   xmlns="http://www.w3.org/2000/svg"
   viewBox="0 0 767.79999 288.61334"
   height="288.61334"
   width="767.79999"
   xml:space="preserve"
   id="svg2"
   version="1.1"><metadata
     id="metadata8"><rdf:RDF><cc:Work
         rdf:about=""><dc:format>image/svg+xml</dc:format><dc:type
           rdf:resource="http://purl.org/dc/dcmitype/StillImage" /></cc:Work></rdf:RDF></metadata><defs
     id="defs6"><clipPath
       id="clipPath20"
       clipPathUnits="userSpaceOnUse"><path
         id="path18"
         d="M 0,0 H 5758 V 2164.61 H 0 Z" /></clipPath></defs><g
     transform="matrix(1.3333333,0,0,-1.3333333,0,288.61333)"
     id="g10"><g
       transform="scale(0.1)"
       id="g12"><g
         id="g14"><g
           clip-path="url(#clipPath20)"
           id="g16"><path
             id="path22"
             style="fill:#1b1918;fill-opacity:1;fill-rule:nonzero;stroke:none"
             d="m 1910.09,1180.86 c 0,32.46 -17.08,55.5 -51.23,55.5 -71.71,0 -104.15,-93.9 -99.89,-153.68 56.36,4.28 151.12,27.32 151.12,98.18 z M 1876.8,934.141 c 46.09,0 81.1,20.488 115.25,51.218 11.96,10.25 17.93,18.781 35.01,18.781 11.94,0 24.76,-10.249 24.76,-23.05 0,-30.738 -46.11,-66.602 -69.16,-79.399 -44.39,-26.472 -88.79,-35.851 -141.73,-35.851 -116.11,0 -229.65,75.969 -229.65,201.49 0,143.43 123.8,228.81 256.97,228.81 75.99,0 175.03,-35.01 175.03,-124.66 0,-63.17 -60.62,-123.79 -276.62,-145.99 11.96,-53.791 54.64,-91.349 110.14,-91.349" /><path
             id="path24"
             style="fill:#1b1918;fill-opacity:1;fill-rule:nonzero;stroke:none"
             d="m 2112.4,1150.15 c 0,29.87 3.41,45.23 -25.63,59.75 -8.53,3.42 -17.91,9.39 -17.91,23.05 0,30.73 105.01,63.19 131.47,63.19 29.04,0 35.01,-39.29 38.42,-61.48 34.15,39.27 83.68,61.48 137.46,61.48 51.23,0 96.48,-23.05 122.09,-69.16 33.29,49.5 87.93,69.16 145.99,69.16 37.56,0 79.4,-12.83 107.58,-39.29 32.43,-30.73 37.57,-74.27 37.57,-116.97 V 993.891 c 0,-41.821 0,-52.082 12.8,-61.473 13.66,-5.969 21.35,-11.938 21.35,-26.457 0,-26.461 -21.35,-27.32 -40.14,-27.32 h -127.2 c -18.79,0 -40.12,0.859 -40.12,27.32 0,14.519 7.67,20.488 21.33,26.457 12.82,9.391 12.82,19.652 12.82,61.473 v 125.499 c 0,40.98 0.84,99.9 -55.5,99.9 -24.77,0 -44.4,-10.25 -58.92,-29.02 -15.35,-20.49 -15.35,-50.39 -15.35,-75.13 V 993.891 c 0,-41.821 0,-52.082 12.8,-61.473 13.66,-5.969 21.35,-11.938 21.35,-26.457 0,-26.461 -21.35,-27.32 -40.15,-27.32 H 2387.3 c -18.77,0 -40.12,0.859 -40.12,27.32 0,14.519 7.68,20.488 21.35,26.457 12.8,9.391 12.8,19.652 12.8,61.473 v 125.499 c 0,40.98 0.86,99.9 -55.5,99.9 -24.75,0 -44.38,-10.25 -58.9,-29.02 -15.38,-20.49 -15.38,-50.39 -15.38,-75.13 V 993.891 c 0,-41.821 0,-52.082 12.81,-61.473 13.66,-5.969 21.35,-11.938 21.35,-26.457 0,-26.461 -21.35,-27.32 -40.13,-27.32 h -127.21 c -18.78,0 -40.13,0.859 -40.13,27.32 0,14.519 7.69,20.488 21.35,26.457 12.81,9.391 12.81,19.652 12.81,61.473 v 156.259" /><path
             id="path26"
             style="fill:#1b1918;fill-opacity:1;fill-rule:nonzero;stroke:none"
             d="m 2893.28,1150.15 c 0,29.87 3.42,45.23 -25.6,59.75 -8.55,3.42 -17.93,9.39 -17.93,23.05 0,30.73 105.01,63.19 131.47,63.19 29.04,0 35.01,-39.29 38.4,-61.48 34.19,39.27 83.68,61.48 137.46,61.48 51.25,0 96.48,-23.05 122.09,-69.16 33.33,49.5 87.97,69.16 146.01,69.16 37.58,0 79.42,-12.83 107.56,-39.29 32.47,-30.73 37.59,-74.27 37.59,-116.97 V 993.891 c 0,-41.821 0,-52.082 12.8,-61.473 13.66,-5.969 21.35,-11.938 21.35,-26.457 0,-26.461 -21.35,-27.32 -40.13,-27.32 h -127.23 c -18.77,0 -40.12,0.859 -40.12,27.32 0,14.519 7.69,20.488 21.35,26.457 12.8,9.391 12.8,19.652 12.8,61.473 v 125.499 c 0,40.98 0.86,99.9 -55.5,99.9 -24.75,0 -44.38,-10.25 -58.9,-29.02 -15.38,-20.49 -15.38,-50.39 -15.38,-75.13 V 993.891 c 0,-41.821 0,-52.082 12.81,-61.473 13.66,-5.969 21.35,-11.938 21.35,-26.457 0,-26.461 -21.35,-27.32 -40.13,-27.32 h -127.19 c -18.78,0 -40.13,0.859 -40.13,27.32 0,14.519 7.69,20.488 21.35,26.457 12.81,9.391 12.81,19.652 12.81,61.473 v 125.499 c 0,40.98 0.85,99.9 -55.5,99.9 -24.79,0 -44.42,-10.25 -58.94,-29.02 -15.34,-20.49 -15.34,-50.39 -15.34,-75.13 V 993.891 c 0,-41.821 0,-52.082 12.8,-61.473 13.66,-5.969 21.35,-11.938 21.35,-26.457 0,-26.461 -21.35,-27.32 -40.12,-27.32 h -127.23 c -18.78,0 -40.13,0.859 -40.13,27.32 0,14.519 7.69,20.488 21.35,26.457 12.8,9.391 12.8,19.652 12.8,61.473 v 156.259" /><path
             id="path28"
             style="fill:#1b1918;fill-opacity:1;fill-rule:nonzero;stroke:none"
             d="m 3884.28,1095.5 c -60.61,0 -122.08,-29.89 -122.08,-98.191 0,-32.438 18.77,-61.469 53.78,-61.469 28.18,0 50.39,17.93 65.73,40.98 17.95,29.03 17.95,29.89 17.95,118.68 z m 153.7,-99.891 c 0,-40.14 0.82,-52.089 16.2,-59.769 18.77,-9.391 28.18,-15.36 28.18,-29.879 0,-27.32 -25.61,-27.32 -46.1,-27.32 h -88.79 c -42.7,0 -42.7,14.519 -42.7,52.937 -29.03,-47.808 -80.24,-65.738 -132.34,-65.738 -80.25,0 -153.66,44.39 -153.66,132.332 0,121.218 153.66,151.118 247.6,151.118 h 29 c 0,51.22 -24.75,89.65 -79.39,89.65 -52.06,0 -59.75,-54.64 -113.53,-54.64 -24.79,0 -52.97,11.08 -52.97,40.98 0,59.75 134.93,70.86 176.73,70.86 148.58,0 211.77,-65.75 211.77,-165.65 V 995.609" /><path
             id="path30"
             style="fill:#1b1918;fill-opacity:1;fill-rule:nonzero;stroke:none"
             d="m 4113.8,1289.52 h -7.26 v -11.42 h 7.26 c 3.87,0 6.39,1.74 6.39,5.81 0,3.77 -2.91,5.61 -6.39,5.61 z m 6.29,-31.06 -6.2,13.64 h -7.26 v -13.64 h -6.47 v 37.06 h 13.64 c 7.07,0 13.16,-4.06 13.16,-11.61 0,-4.84 -2.13,-8.71 -6.68,-10.74 l 6.87,-14.71 z m -7.84,47.32 c -17.13,0 -28.45,-12.48 -28.45,-29.42 0,-16.93 11.32,-29.32 28.45,-29.32 17.13,0 28.45,12.48 28.45,29.42 0,16.93 -11.32,29.32 -28.45,29.32 z m 0,-64.94 c -20.04,0 -34.94,15.68 -34.94,35.52 0,19.84 14.9,35.62 34.94,35.62 20.03,0 34.94,-15.68 34.94,-35.52 0,-19.84 -14.91,-35.62 -34.94,-35.62" /></g></g></g></g></svg>