<?xml version="1.0" encoding="UTF-8" standalone="no"?>
<!-- Created with Inkscape (http://www.inkscape.org/) -->

<svg
   xmlns:dc="http://purl.org/dc/elements/1.1/"
   xmlns:cc="http://creativecommons.org/ns#"
   xmlns:rdf="http://www.w3.org/1999/02/22-rdf-syntax-ns#"
   xmlns:svg="http://www.w3.org/2000/svg"
   xmlns="http://www.w3.org/2000/svg"
   version="1.1"
   width="199.98828"
   height="71.610947"
   id="svg3159">
  <defs
     id="defs3161">
    <clipPath
       id="clipPath3079">
      <path
         d="M 0,432 864,432 864,0 0,0 0,432 z"
         id="path3081" />
    </clipPath>
    <clipPath
       id="clipPath3103">
      <path
         d="m 468.369,239.962 13.942,-12.093 -4.368,-48.881 2.52,-10.079 10.581,6.551 -1.51,12.429 49.721,27.214 4.703,8.005 -7.56,4.089 -23.349,1.847 -30.823,19.15 -13.857,1.847 0,-10.079 z"
         id="path3105" />
    </clipPath>
  </defs>
  <metadata
     id="metadata3164">
    <rdf:RDF>
      <cc:Work
         rdf:about="">
        <dc:format>image/svg+xml</dc:format>
        <dc:type
           rdf:resource="http://purl.org/dc/dcmitype/StillImage" />
        <dc:title></dc:title>
      </cc:Work>
    </rdf:RDF>
  </metadata>
  <g
     transform="translate(-357.83221,-504.70276)"
     id="layer1">
    <g
       transform="matrix(0.75141876,0,0,-0.75141876,144.92682,699.59046)"
       id="g3073">
      <g
         id="g3075">
        <g
           clip-path="url(#clipPath3079)"
           id="g3077">
          <g
             transform="translate(380.4531,202.9707)"
             id="g3083">
            <path
               d="m 0,0 0,-1.453 c 0,-1.09 -0.099,-2.157 -0.295,-3.202 -0.197,-1.044 -0.522,-1.975 -0.976,-2.792 -0.455,-0.818 -1.053,-1.476 -1.794,-1.976 -0.742,-0.499 -1.658,-0.749 -2.748,-0.749 -1.089,0 -2.005,0.25 -2.747,0.749 -0.742,0.5 -1.339,1.158 -1.794,1.976 -0.454,0.817 -0.779,1.748 -0.976,2.792 -0.197,1.045 -0.295,2.112 -0.295,3.202 l 0,14.531 c 0,1.453 0.098,2.725 0.295,3.815 0.197,1.089 0.522,1.998 0.976,2.724 0.455,0.727 1.052,1.272 1.794,1.635 0.742,0.363 1.658,0.545 2.747,0.545 1.09,0 2.006,-0.182 2.748,-0.545 0.741,-0.363 1.339,-0.908 1.794,-1.635 0.454,-0.726 0.779,-1.635 0.976,-2.724 C -0.099,15.803 0,14.531 0,13.078 l 5.813,0 c 0,1.998 -0.22,3.826 -0.659,5.483 -0.439,1.658 -1.124,3.077 -2.055,4.258 -0.931,1.18 -2.134,2.1 -3.61,2.758 -1.476,0.659 -3.243,0.988 -5.302,0.988 -2.179,0 -4.011,-0.371 -5.494,-1.113 -1.484,-0.741 -2.679,-1.771 -3.588,-3.087 -0.908,-1.317 -1.559,-2.892 -1.952,-4.723 -0.394,-1.832 -0.591,-3.837 -0.591,-6.017 l 0,-11.602 c 0,-2.18 0.197,-4.186 0.591,-6.017 0.393,-1.832 1.044,-3.41 1.952,-4.734 0.909,-1.325 2.104,-2.358 3.588,-3.099 1.483,-0.742 3.315,-1.113 5.494,-1.113 2.18,0 4.012,0.363 5.495,1.09 1.483,0.726 2.679,1.703 3.588,2.929 0.908,1.226 1.558,2.656 1.952,4.291 0.394,1.635 0.591,3.36 0.591,5.177 L 5.813,0 0,0 z M 32.695,-14.531 26.139,5.807 c 0.956,0.348 1.807,0.924 2.551,1.726 0.319,0.334 0.631,0.739 0.934,1.216 0.304,0.477 0.578,1.029 0.821,1.658 0.243,0.629 0.436,1.344 0.581,2.147 0.144,0.803 0.216,1.704 0.216,2.704 0,1.635 -0.204,3.122 -0.613,4.461 -0.409,1.34 -1.112,2.487 -2.111,3.44 -0.999,0.954 -2.339,1.692 -4.019,2.214 -1.68,0.522 -3.792,0.783 -6.335,0.783 l -7.266,0 0,-40.687 5.813,0 0,18.89 4.359,0 6.092,-18.89 5.533,0 z m -15.984,36.328 1.453,0 c 1.09,0 2.081,-0.102 2.974,-0.307 0.893,-0.204 1.658,-0.556 2.294,-1.055 0.635,-0.5 1.127,-1.17 1.475,-2.01 0.348,-0.84 0.523,-1.896 0.523,-3.167 0,-1.272 -0.175,-2.327 -0.523,-3.168 -0.348,-0.84 -0.84,-1.509 -1.475,-2.009 C 22.796,9.582 22.031,9.23 21.138,9.025 20.245,8.821 19.254,8.719 18.164,8.719 l -1.453,0 0,13.078 z m 36.328,-36.328 5.813,32.105 0,-32.105 5.812,0 0,40.687 -8.158,0 -5.785,-31.188 -5.786,31.188 -7.88,0 0,-40.687 5.812,0 0,32.103 5.813,-32.103 4.359,0 z"
               id="path3085"
               style="fill:#373535;fill-opacity:1;fill-rule:nonzero;stroke:none" />
          </g>
          <g
             transform="translate(303.4375,202.9707)"
             id="g3087">
            <path
               d="m 0,0 0,-1.453 c 0,-1.09 -0.099,-2.157 -0.295,-3.202 -0.197,-1.044 -0.522,-1.975 -0.976,-2.792 -0.455,-0.818 -1.053,-1.476 -1.794,-1.976 -0.742,-0.499 -1.658,-0.749 -2.748,-0.749 -1.089,0 -2.005,0.25 -2.747,0.749 -0.742,0.5 -1.339,1.158 -1.794,1.976 -0.454,0.817 -0.779,1.748 -0.976,2.792 -0.197,1.045 -0.295,2.112 -0.295,3.202 l 0,14.531 c 0,1.453 0.098,2.725 0.295,3.815 0.197,1.089 0.522,1.998 0.976,2.724 0.455,0.727 1.052,1.272 1.794,1.635 0.742,0.363 1.658,0.545 2.747,0.545 1.09,0 2.006,-0.182 2.748,-0.545 0.741,-0.363 1.339,-0.908 1.794,-1.635 0.454,-0.726 0.779,-1.635 0.976,-2.724 C -0.099,15.803 0,14.531 0,13.078 l 5.813,0 c 0,1.998 -0.22,3.826 -0.659,5.483 -0.439,1.658 -1.124,3.077 -2.055,4.258 -0.931,1.18 -2.134,2.1 -3.61,2.758 -1.476,0.659 -3.243,0.988 -5.302,0.988 -2.179,0 -4.011,-0.371 -5.494,-1.113 -1.484,-0.741 -2.679,-1.771 -3.588,-3.087 -0.908,-1.317 -1.559,-2.892 -1.952,-4.723 -0.394,-1.832 -0.591,-3.837 -0.591,-6.017 l 0,-11.602 c 0,-2.18 0.197,-4.186 0.591,-6.017 0.393,-1.832 1.044,-3.41 1.952,-4.734 0.909,-1.325 2.104,-2.358 3.588,-3.099 1.483,-0.742 3.315,-1.113 5.494,-1.113 2.18,0 4.012,0.363 5.495,1.09 1.483,0.726 2.679,1.703 3.588,2.929 0.908,1.226 1.558,2.656 1.952,4.291 0.394,1.635 0.591,3.36 0.591,5.177 L 5.813,0 0,0 z m 10.898,-14.531 5.813,0 0,40.688 -5.813,0 0,-40.688 z m 21.599,8.718 -1.323,10.172 -4.298,21.797 -5.806,0 8.347,-40.687 6.185,0 8.711,40.687 -5.805,0 -4.647,-21.72 -1.364,-10.249 z m 16.183,-8.718 5.813,0 0,40.688 -5.813,0 0,-40.688 z"
               id="path3089"
               style="fill:#2a698b;fill-opacity:1;fill-rule:nonzero;stroke:none" />
          </g>
          <g
             transform="translate(470.7715,245.6162)"
             id="g3091">
            <path
               d="m 0,0 c 0,0 -9.858,2.099 -6.73,-7.483 l 20.595,-63.121 c 0,0 3.127,-9.583 9.857,-2.079 l 44.206,49.293 c 0,0 6.728,7.503 -3.129,9.601 L 0,0 z"
               id="path3093"
               style="fill:none;stroke:#2a698b;stroke-width:6.71899986;stroke-linecap:butt;stroke-linejoin:miter;stroke-miterlimit:4;stroke-opacity:1;stroke-dasharray:none" />
          </g>
          <g
             transform="translate(481.2305,252.2236)"
             id="g3095">
            <path
               d="m 0,0 c 0,0 -8.887,4.753 -8.526,-5.319 l 2.376,-66.509 c 0,0 0.359,-10.073 8.881,-4.693 l 55.836,35.255 c 0,0 8.523,5.382 -0.364,10.136 L 0,0 z"
               id="path3097"
               style="fill:none;stroke:#86c661;stroke-width:6.71899986;stroke-linecap:butt;stroke-linejoin:miter;stroke-miterlimit:4;stroke-opacity:1;stroke-dasharray:none" />
          </g>
        </g>
      </g>
      <g
         id="g3099">
        <g
           clip-path="url(#clipPath3103)"
           id="g3101">
          <g
             transform="translate(470.7715,245.6172)"
             id="g3107">
            <path
               d="m 0,0 c 0,0 -9.858,2.098 -6.73,-7.484 l 20.595,-63.121 c 0,0 3.127,-9.583 9.857,-2.079 l 44.206,49.293 c 0,0 6.728,7.503 -3.129,9.602 L 0,0 z"
               id="path3109"
               style="fill:none;stroke:#2a698b;stroke-width:6.71899986;stroke-linecap:butt;stroke-linejoin:miter;stroke-miterlimit:4;stroke-opacity:1;stroke-dasharray:none" />
          </g>
        </g>
      </g>
    </g>
  </g>
</svg>
