<svg id="Layer_1" data-name="Layer 1" xmlns="http://www.w3.org/2000/svg" viewBox="0 0 130 88.97"><defs><style>.cls-1{fill:#1a5686;}</style></defs><title>icontact</title><path class="cls-1" d="M30.7,106.56A11.45,11.45,0,0,0,32,112.28a8.23,8.23,0,0,0,5.7,4.11,13.35,13.35,0,0,0,7.9-.67c.16-.07.2,0,.24.13q.28,1.1.59,2.2c.05.18,0,.23-.16.29a13.28,13.28,0,0,1-3.4.91,19.13,19.13,0,0,1-5,.12c-5.26-.61-9.2-3.85-10.34-9.18a15.09,15.09,0,0,1,.65-9A11.77,11.77,0,0,1,37,93.86a16.38,16.38,0,0,1,8.62.33c.26.08.51.21.77.3s.18.15.13.3c-.23.73-.45,1.47-.66,2.2-.06.21-.12.23-.32.15a12.22,12.22,0,0,0-9-.23,8.46,8.46,0,0,0-5.37,6A13,13,0,0,0,30.7,106.56Z" transform="translate(-10 -30.51)"/><path class="cls-1" d="M56.88,100.56a8.58,8.58,0,0,1,5.92,2.15,8.44,8.44,0,0,1,2.61,4.69,11.28,11.28,0,0,1-.54,6.76,8.31,8.31,0,0,1-6.49,5.13,9,9,0,0,1-5.69-.67,8,8,0,0,1-4.33-5,10.92,10.92,0,0,1,.56-8.41,8.21,8.21,0,0,1,6.35-4.55A9.51,9.51,0,0,1,56.88,100.56ZM51.19,110a8.07,8.07,0,0,0,1.39,4.78,5,5,0,0,0,5.31,2.06,5.3,5.3,0,0,0,3.57-3.1,8.92,8.92,0,0,0,.48-6.22,6.45,6.45,0,0,0-2.07-3.45,5.13,5.13,0,0,0-7.4,1.28A8.59,8.59,0,0,0,51.19,110Z" transform="translate(-10 -30.51)"/><path class="cls-1" d="M111.31,111.33c0,1.25,0,2.51,0,3.76a23,23,0,0,0,.27,3.71c0,.21,0,.26-.23.26h-2.53c-.17,0-.25,0-.26-.23-.06-.61-.14-1.22-.21-1.84,0-.07,0-.17-.07-.19s-.11.06-.15.11a6.57,6.57,0,0,1-4.46,2.48,5.86,5.86,0,0,1-5.1-1.43A5,5,0,0,1,97,114a5.78,5.78,0,0,1,3.89-5.32,14.67,14.67,0,0,1,4.69-1.08c.73-.06,1.46-.09,2.19-.09.11,0,.2,0,.21-.15a4.66,4.66,0,0,0-.77-3,3.35,3.35,0,0,0-2.4-1.31,8.72,8.72,0,0,0-5.49,1.14c-.19.11-.25.1-.32-.11-.18-.57-.38-1.13-.59-1.69-.08-.21,0-.3.16-.4a10.68,10.68,0,0,1,3.91-1.32,10.48,10.48,0,0,1,4.43.19,5.68,5.68,0,0,1,4.15,4.63,10.76,10.76,0,0,1,.24,2.34Q111.31,109.59,111.31,111.33Zm-3.21.28c0-.56,0-1,0-1.47,0-.26-.09-.32-.32-.32-.71,0-1.42,0-2.13.09a9.77,9.77,0,0,0-3,.72,3.42,3.42,0,0,0-2.27,3.18,2.91,2.91,0,0,0,1.8,3,4.23,4.23,0,0,0,2.1.19,4.49,4.49,0,0,0,3.74-3.37A10.43,10.43,0,0,0,108.1,111.61Z" transform="translate(-10 -30.51)"/><path class="cls-1" d="M71,104.32A6.57,6.57,0,0,1,76,101a6.52,6.52,0,0,1,4.43.87,6.26,6.26,0,0,1,2.77,4,11.14,11.14,0,0,1,.3,2.68q0,5.27,0,10.53c0,.23,0,.31-.29.31q-1.38,0-2.76,0c-.23,0-.28-.07-.28-.29q0-5,0-9.94a8.48,8.48,0,0,0-.45-3,3.8,3.8,0,0,0-4.2-2.53,4.81,4.81,0,0,0-4.25,4.85c0,3.51,0,7,0,10.53,0,.28-.06.37-.36.36-.88,0-1.77,0-2.65,0-.27,0-.35,0-.35-.33q0-6.62,0-13.24c0-1.44,0-2.88-.14-4.32,0-.17,0-.21.2-.21h2.53c.18,0,.23.06.23.23,0,.76.09,1.51.14,2.27A1.26,1.26,0,0,0,71,104.32Z" transform="translate(-10 -30.51)"/><path class="cls-1" d="M122.35,119.47a9.91,9.91,0,0,1-4.82-1.1,7.91,7.91,0,0,1-3.85-4.59,10.68,10.68,0,0,1,.13-7.43,8.45,8.45,0,0,1,5.42-5.15,11.62,11.62,0,0,1,7.94.18c.37.14.37.15.25.54-.19.64-.39,1.29-.57,1.93-.05.19-.11.22-.3.14a8.07,8.07,0,0,0-6.17-.3,5.39,5.39,0,0,0-3.23,3.1,7.85,7.85,0,0,0,.08,6.67,5.68,5.68,0,0,0,4.73,3.29,8.79,8.79,0,0,0,4.66-.73c.23-.1.3,0,.35.18.13.62.26,1.24.43,1.85.08.29,0,.39-.26.5a12.45,12.45,0,0,1-3.75.87A8.06,8.06,0,0,1,122.35,119.47Z" transform="translate(-10 -30.51)"/><path class="cls-1" d="M95.35,116.5c0,.69.08,1.36.12,2,0,.48,0,.48-.45.61a7.88,7.88,0,0,1-3.43.24,4.18,4.18,0,0,1-3.7-3.6,11.35,11.35,0,0,1-.21-2.29q0-4.85,0-9.71c0-.24-.05-.32-.31-.32-.76,0-1.52,0-2.28,0-.2,0-.26-.05-.26-.25q0-1,0-2c0-.2.06-.25.26-.25h2.33c.2,0,.25-.05.25-.25,0-.94,0-1.88,0-2.82,0-.17,0-.27.22-.33.94-.28,1.88-.58,2.82-.88.19-.06.24,0,.24.17,0,1.27,0,2.54,0,3.82,0,.21,0,.29.28.29h4.21c.2,0,.28,0,.27.26q0,1,0,2c0,.24-.08.27-.29.27H91.23c-.22,0-.29,0-.29.28,0,3.22,0,6.43,0,9.65a6,6,0,0,0,.18,1.55,2.14,2.14,0,0,0,2.28,1.77A6.74,6.74,0,0,0,95.35,116.5Z" transform="translate(-10 -30.51)"/><path class="cls-1" d="M135.23,96.64v1.68c0,.8,0,1.59,0,2.39,0,.21.05.27.27.27h4.21c.24,0,.3.06.3.3,0,.65,0,1.31,0,2,0,.22-.06.27-.27.26h-4.21c-.21,0-.29,0-.29.28,0,3.26,0,6.51,0,9.77a4.66,4.66,0,0,0,.4,2,2.1,2.1,0,0,0,2.07,1.19,6.36,6.36,0,0,0,1.78-.19c.15,0,.18,0,.18.14,0,.7.08,1.4.12,2.1,0,.12,0,.22-.14.26a7.34,7.34,0,0,1-4.83.06,4.07,4.07,0,0,1-2.61-3.2,10.71,10.71,0,0,1-.23-2.23q0-4.94,0-9.88c0-.24,0-.32-.31-.32-.77,0-1.54,0-2.31,0-.19,0-.24-.06-.24-.24,0-.68,0-1.37,0-2,0-.2.07-.23.24-.23h2.33c.21,0,.27,0,.27-.26,0-.93,0-1.86,0-2.79,0-.19,0-.3.25-.36C133.22,97.27,134.21,97,135.23,96.64Z" transform="translate(-10 -30.51)"/><path class="cls-1" d="M19.44,119.11a5,5,0,0,1-1.17-.07l-.19-.06a.38.38,0,0,1-.26-.45c.1-.74.2-1.48.29-2.23l.28-2.12.3-2.28.3-2.26.3-2.29.3-2.27c.1-.72.19-1.45.29-2.17a.63.63,0,0,1,.38-.47,3.12,3.12,0,0,1,1-.29A11.68,11.68,0,0,1,23.1,102a3,3,0,0,1,.93.12.44.44,0,0,1,.34.57c-.1.76-.2,1.51-.3,2.27l-.28,2.11-.3,2.27-.3,2.27-.28,2.13-.32,2.42c-.09.67-.18,1.34-.26,2a.65.65,0,0,1-.38.52A2.94,2.94,0,0,1,21,119,13.36,13.36,0,0,1,19.44,119.11Z" transform="translate(-10 -30.51)"/><path class="cls-1" d="M18.5,89.08a1.23,1.23,0,0,1-.64,1.09,10.87,10.87,0,0,0-3.67,3.3,9.15,9.15,0,0,0-1.58,4,8.06,8.06,0,0,0,1,5.35,1.27,1.27,0,0,1,0,1.36,1.25,1.25,0,0,1-2.15,0,10.38,10.38,0,0,1-1.37-3.7,11,11,0,0,1,1-6.72,12.89,12.89,0,0,1,5.1-5.52,2.47,2.47,0,0,1,.71-.35A1.26,1.26,0,0,1,18.5,89.08Z" transform="translate(-10 -30.51)"/><path class="cls-1" d="M14.91,98.78a7.47,7.47,0,0,1,2-5.15,7.72,7.72,0,0,1,1.93-1.5.87.87,0,1,1,.85,1.51,6,6,0,0,0-2.3,2.22,5.67,5.67,0,0,0,0,5.83.87.87,0,0,1-.29,1.21.86.86,0,0,1-1.2-.32,7.31,7.31,0,0,1-1.05-3.44C14.9,99,14.91,98.9,14.91,98.78Z" transform="translate(-10 -30.51)"/><path class="cls-1" d="M22.14,101a3.69,3.69,0,0,1-1-.1,1.09,1.09,0,0,1-.87-1,4.68,4.68,0,0,1,.3-2.13,2,2,0,0,1,1.31-1.19,6.52,6.52,0,0,1,2-.24,3.05,3.05,0,0,1,.6.06,1.13,1.13,0,0,1,1,1.1,4.48,4.48,0,0,1-.33,2.19,1.92,1.92,0,0,1-1.35,1.1,7,7,0,0,1-1.66.21Z" transform="translate(-10 -30.51)"/><path class="cls-1" d="M77.53,84.87a8.67,8.67,0,0,1-2-.12,2,2,0,0,1-.33-.11.66.66,0,0,1-.45-.78c.17-1.29.34-2.58.51-3.87l.48-3.68.52-4,.52-3.93.53-4,.52-3.95c.17-1.26.33-2.52.5-3.77a1.09,1.09,0,0,1,.67-.81,5.42,5.42,0,0,1,1.73-.5,20.29,20.29,0,0,1,3.2-.22,5.12,5.12,0,0,1,1.61.22.77.77,0,0,1,.59,1c-.18,1.31-.35,2.63-.52,3.94L85.09,64l-.52,3.94L84,71.88c-.16,1.23-.32,2.47-.48,3.7q-.28,2.11-.56,4.21c-.15,1.16-.31,2.32-.46,3.49a1.13,1.13,0,0,1-.66.9,5.1,5.1,0,0,1-1.6.45A23.21,23.21,0,0,1,77.53,84.87Z" transform="translate(-10 -30.51)"/><path class="cls-1" d="M75.89,32.7a2.13,2.13,0,0,1-1.12,1.89,18.88,18.88,0,0,0-6.38,5.74,15.91,15.91,0,0,0-2.75,6.87,14,14,0,0,0,1.79,9.3,2.21,2.21,0,0,1,.08,2.37,2.17,2.17,0,0,1-3.74,0,18,18,0,0,1-2.38-6.42,19.18,19.18,0,0,1,1.73-11.67A22.4,22.4,0,0,1,72,31.17a4.3,4.3,0,0,1,1.24-.6A2.19,2.19,0,0,1,75.89,32.7Z" transform="translate(-10 -30.51)"/><path class="cls-1" d="M69.65,49.55a13,13,0,0,1,3.56-9A13.41,13.41,0,0,1,76.57,38,1.51,1.51,0,1,1,78,40.63a10.49,10.49,0,0,0-4,3.85,9.85,9.85,0,0,0,0,10.13,1.52,1.52,0,0,1-.51,2.11,1.49,1.49,0,0,1-2.08-.56,12.69,12.69,0,0,1-1.83-6C69.64,50,69.65,49.76,69.65,49.55Z" transform="translate(-10 -30.51)"/><path class="cls-1" d="M82.22,53.43a6.4,6.4,0,0,1-1.68-.17A1.9,1.9,0,0,1,79,51.49a8.14,8.14,0,0,1,.52-3.7,3.38,3.38,0,0,1,2.28-2.06,11.32,11.32,0,0,1,3.5-.41,5.31,5.31,0,0,1,1,.11,2,2,0,0,1,1.78,1.92,7.79,7.79,0,0,1-.57,3.8,3.34,3.34,0,0,1-2.34,1.91,12.15,12.15,0,0,1-2.89.36Z" transform="translate(-10 -30.51)"/></svg>